HIERARCHY
ROOT Hips
{
	OFFSET	0.00	0.00	0.00
	CHANNELS 6 Xposition Yposition Zposition Zrotation Xrotation Yrotation
	JOINT LeftUpLeg
	{
		OFFSET	 0.126116	-0.014019	-0.065224
		CHANNELS 3 Zrotation Xrotation Yrotation
		JOINT LeftLeg
		{
			OFFSET	 0.000000	 0.000000	 0.569914
			CHANNELS 3 Zrotation Xrotation Yrotation
			JOINT LeftFoot
			{
				OFFSET	 0.000000	 0.000000	 0.544423
				CHANNELS 3 Zrotation Xrotation Yrotation
				JOINT LeftToeBase
				{
					OFFSET	 0.000000	 0.000000	 0.207117
					CHANNELS 3 Zrotation Xrotation Yrotation
					End Site
					{
						OFFSET	 0.000000	 0.000000	 0.207117
					}
				}
			}
		}
	}
	JOINT RightUpLeg
	{
		OFFSET	-0.124023	-0.008373	-0.065224
		CHANNELS 3 Zrotation Xrotation Yrotation
		JOINT RightLeg
		{
			OFFSET	 0.000000	 0.000000	 0.570047
			CHANNELS 3 Zrotation Xrotation Yrotation
			JOINT RightFoot
			{
				OFFSET	 0.000000	 0.000000	 0.544354
				CHANNELS 3 Zrotation Xrotation Yrotation
				JOINT RightToeBase
				{
					OFFSET	 0.000000	 0.000000	 0.207540
					CHANNELS 3 Zrotation Xrotation Yrotation
					End Site
					{
						OFFSET	 0.000000	 0.000000	 0.207540
					}
				}
			}
		}
	}
	JOINT Spine
	{
		OFFSET	 0.000184	-0.007763	 0.117403
		CHANNELS 3 Zrotation Xrotation Yrotation
		JOINT Spine1
		{
			OFFSET	 0.000000	 0.000000	 0.137269
			CHANNELS 3 Zrotation Xrotation Yrotation
			JOINT Spine2
			{
				OFFSET	 0.000000	 0.000000	 0.156879
				CHANNELS 3 Zrotation Xrotation Yrotation
				JOINT LeftShoulder
				{
					OFFSET	 0.080501	-0.002496	 0.160144
					CHANNELS 3 Zrotation Xrotation Yrotation
					JOINT LeftArm
					{
						OFFSET	 0.000000	 0.000000	 0.164363
						CHANNELS 3 Zrotation Xrotation Yrotation
						JOINT LeftForeArm
						{
							OFFSET	 0.000000	 0.000000	 0.364576
							CHANNELS 3 Zrotation Xrotation Yrotation
							JOINT LeftHand
							{
								OFFSET	 0.000000	 0.000000	 0.360812
								CHANNELS 3 Zrotation Xrotation Yrotation
								JOINT LeftHandIndex1
								{
									OFFSET	 0.000000	 0.000000	 0.086006
									CHANNELS 3 Zrotation Xrotation Yrotation
									JOINT LeftHandIndex2
									{
										OFFSET	 0.000000	 0.000000	 0.047237
										CHANNELS 3 Zrotation Xrotation Yrotation
										JOINT LeftHandIndex3
										{
											OFFSET	-0.004284	-0.000551	 0.038165
											CHANNELS 3 Zrotation Xrotation Yrotation
											End Site
											{
												OFFSET	-0.004284	-0.000551	 0.038165
											}
										}
									}
								}
							}
						}
					}
				}
				JOINT Neck
				{
					OFFSET	 0.000000	 0.000000	 0.176489
					CHANNELS 3 Zrotation Xrotation Yrotation
					JOINT Head
					{
						OFFSET	 0.000000	-0.001747	 0.077940
						CHANNELS 3 Zrotation Xrotation Yrotation
						End Site
						{
							OFFSET	 0.000000	-0.001747	 0.077940
						}
					}
				}
				JOINT RightShoulder
				{
					OFFSET	-0.080363	 0.000306	 0.159706
					CHANNELS 3 Zrotation Xrotation Yrotation
					JOINT RightArm
					{
						OFFSET	 0.000000	 0.000000	 0.164196
						CHANNELS 3 Zrotation Xrotation Yrotation
						JOINT RightForeArm
						{
							OFFSET	 0.000000	 0.000000	 0.365611
							CHANNELS 3 Zrotation Xrotation Yrotation
							JOINT RightHand
							{
								OFFSET	 0.000000	 0.000000	 0.360648
								CHANNELS 3 Zrotation Xrotation Yrotation
								JOINT RightHandIndex1
								{
									OFFSET	 0.000000	 0.000000	 0.069977
									CHANNELS 3 Zrotation Xrotation Yrotation
									JOINT RightHandIndex2
									{
										OFFSET	 0.000000	 0.000000	 0.052305
										CHANNELS 3 Zrotation Xrotation Yrotation
										JOINT RightHandIndex3
										{
											OFFSET	 0.009002	-0.000782	 0.042196
											CHANNELS 3 Zrotation Xrotation Yrotation
											End Site
											{
												OFFSET	 0.009002	-0.000782	 0.042196
											}
										}
									}
								}
							}
						}
					}
				}
			}
		}
	}
}
MOTION
Frames:    10
Frame Time: 0.03333334
-0.671288	-0.041261	 1.257416	-159.384800	 4.237644	 7.988472	 16.508240	-10.119350	 163.939500	-8.861843	-27.721710	-3.226508	-70.487220	 76.746400	 68.592890	-2.385833	 28.452760	 0.000004	 2.361442	-41.889980	 176.964000	-30.258780	-59.663550	-16.869050	 32.013870	 38.588480	-38.992080	 2.384659	 28.388700	-0.000001	 72.018010	-12.391170	-15.599620	 46.176420	 24.635890	-4.447067	-13.837750	-4.205840	 4.285905	-91.776180	 78.527420	-180.000000	 9.829329	 9.716606	-49.256190	-47.073750	 10.712060	-12.066790	 55.450970	-22.519720	 17.680530	-4.131196	 21.524690	 0.986298	-5.167839	 0.733520	 3.519257	-1.378229	 35.397820	-2.634230	-14.114030	 16.453340	-7.496796	-27.733600	 3.039927	 5.612466	 89.782110	 78.287990	 179.994700	 3.709930	 60.660670	 0.826560	 36.758700	 10.697310	 12.176270	 52.197060	-27.972380	-51.320800	 5.715225	 19.176060	-3.692089	 5.027514	 0.245388	-9.378011	-2.350882	 35.473990	 5.254307
-0.670912	-0.040557	 1.257156	-159.689000	 4.550190	 8.613058	 16.337190	-10.698650	 163.385500	-8.736259	-28.057990	-3.202697	-68.670760	 76.891180	 66.587780	-2.385833	 28.452760	 0.000004	 3.328649	-42.180710	 176.433500	-28.122860	-59.853720	-15.005740	 39.120000	 43.787710	-42.546300	 2.384659	 28.388700	-0.000001	 71.990410	-13.240760	-16.189110	 46.307280	 24.743460	-4.154122	-13.856530	-3.747881	 3.954255	-91.776180	 78.527420	 180.000000	 9.847021	 9.693113	-49.346120	-46.901750	 10.710640	-12.067840	 55.729400	-22.410920	 17.365780	-4.131196	 21.524690	 0.986298	-5.167839	 0.733520	 3.519257	-1.378229	 35.397820	-2.634230	-13.970970	 16.427080	-7.928532	-27.811450	 2.887694	 5.626406	 89.782100	 78.288060	 179.994300	 3.875571	 60.584870	 0.806502	 36.541880	 10.695690	 12.179060	 51.378010	-28.000890	-51.938020	 5.715225	 19.176060	-3.692089	 5.027514	 0.245388	-9.378011	-2.350882	 35.473990	 5.254307
-0.669903	-0.039439	 1.259514	-159.840000	 4.460919	 8.598487	 17.152190	-10.547320	 163.332500	-8.577948	-27.614150	-3.081966	-74.133840	 78.047930	 71.613010	-2.385833	 28.452760	 0.000004	 2.932927	-41.886830	 176.337700	-25.182900	-59.842800	-12.413820	 45.716400	 47.765580	-46.477990	 2.384659	 28.388700	-0.000001	 71.767270	-14.557620	-16.770610	 46.555250	 27.014760	-5.481966	-13.765710	-4.698648	 4.314905	-91.776100	 78.527380	 179.999900	 9.438452	 9.973338	-49.271380	-46.527310	 10.705340	-12.067890	 55.946600	-22.380760	 17.149740	-4.131196	 21.524690	 0.986298	-5.167839	 0.733520	 3.519257	-1.378229	 35.397820	-2.634230	-13.992440	 16.313380	-7.835694	-27.818690	 2.853419	 5.404615	 89.782120	 78.295210	 179.993700	 3.608468	 60.710180	 1.178942	 35.898900	 10.687000	 12.178680	 51.970910	-27.844570	-49.864240	 5.715225	 19.176060	-3.692089	 5.027514	 0.245388	-9.378011	-2.350882	 35.473990	 5.254307
-0.668529	-0.038100	 1.261971	-159.980400	 4.369819	 8.527493	 18.041030	-10.343120	 163.317300	-8.386409	-27.082650	-2.939173	-81.139780	 79.103130	 78.190400	-2.385833	 28.452760	 0.000004	 1.978959	-41.558330	 176.189600	-22.247590	-59.704310	-9.830148	 52.494830	 51.179110	-51.018800	 2.384659	 28.388700	-0.000001	 71.548450	-15.738290	-17.241030	 46.852520	 29.094220	-6.797112	-13.670920	-5.581829	 4.678650	-91.776230	 78.527400	-180.000000	 9.006001	 10.279570	-49.189000	-46.139260	 10.698900	-12.069040	 56.156120	-22.350690	 16.946270	-4.131196	 21.524690	 0.986298	-5.167839	 0.733520	 3.519257	-1.378229	 35.397820	-2.634230	-14.025480	 16.195510	-7.705782	-27.820880	 2.828910	 5.169837	 89.782160	 78.302550	 179.992800	 3.403120	 60.845240	 1.506080	 35.232910	 10.676860	 12.179030	 52.630510	-27.702660	-47.637470	 5.715225	 19.176060	-3.692089	 5.027514	 0.245388	-9.378011	-2.350882	 35.473990	 5.254307
-0.666466	-0.036747	 1.261109	-160.759000	 4.725698	 8.830268	 19.171300	-10.979780	 163.091800	-7.944008	-27.188910	-2.745775	-85.185590	 79.294910	 81.732320	-2.385833	 28.452760	 0.000004	 0.738520	-42.079770	 175.389800	-20.741760	-59.762500	-8.523639	 53.743400	 53.115940	-51.047960	 2.384659	 28.388700	-0.000001	 72.266430	-15.736580	-17.548480	 46.638130	 28.725200	-5.505981	-13.724390	-5.122853	 4.274342	-91.776220	 78.527420	-180.000000	 9.099343	 10.047520	-49.246450	-45.734600	 10.689900	-12.068430	 56.359470	-22.327310	 16.747930	-4.131196	 21.524690	 0.986298	-5.167839	 0.733520	 3.519257	-1.378229	 35.397820	-2.634230	-14.015860	 16.390740	-7.702000	-27.781310	 2.682119	 5.056393	 89.782130	 78.305060	 179.992600	 2.954114	 61.031970	 1.935311	 34.500870	 10.664990	 12.180150	 50.999120	-28.437860	-48.074050	 5.715225	 19.176060	-3.692089	 5.027514	 0.245388	-9.378011	-2.350882	 35.473990	 5.254307
-0.663896	-0.035070	 1.260071	-161.620300	 5.102125	 9.183693	 20.377390	-11.647920	 162.823700	-7.381465	-27.285840	-2.494881	-89.781040	 79.464620	 85.696560	-2.385833	 28.452760	 0.000004	-0.599249	-42.575300	 174.479200	-19.154650	-59.755150	-7.143254	 55.010410	 55.226910	-51.079180	 2.384659	 28.388700	-0.000001	 73.086140	-15.620500	-17.880980	 46.388660	 28.169830	-3.965079	-13.782870	-4.541076	 3.798515	-91.776170	 78.527420	-180.000000	 9.214476	 9.784404	-49.318530	-45.291920	 10.679410	-12.069150	 56.575360	-22.294190	 16.534530	-4.131196	 21.524690	 0.986298	-5.167839	 0.733520	 3.519257	-1.378229	 35.397820	-2.634230	-14.004130	 16.611040	-7.702065	-27.737690	 2.520131	 4.938703	 89.782090	 78.307810	 179.992300	 2.401928	 61.232200	 2.471103	 33.706760	 10.650830	 12.182240	 49.148340	-29.182990	-48.705080	 5.715225	 19.176060	-3.692089	 5.027514	 0.245388	-9.378011	-2.350882	 35.473990	 5.254307
-0.660901	-0.032544	 1.259863	-162.046000	 5.521893	 8.649000	 21.207490	-11.608510	 163.446900	-6.420681	-26.758870	-2.015138	-108.728600	 80.690800	 103.288600	-2.385833	 28.452760	 0.000004	 0.767353	-42.937500	 175.492400	-18.615730	-59.718400	-6.672933	 59.694080	 56.497670	-54.777470	 2.384659	 28.388700	-0.000001	 73.589490	-15.881580	-17.083070	 46.354480	 28.756440	-3.912076	-13.697220	-4.925089	 3.474295	-91.776190	 78.527380	-180.000000	 9.192872	 9.774040	-49.349120	-44.911900	 10.664170	-12.066910	 56.795980	-22.248280	 16.297140	-4.131196	 21.524690	 0.986298	-5.167839	 0.733520	 3.519257	-1.378229	 35.397820	-2.634230	-13.880720	 16.909920	-7.812715	-27.668670	 2.486802	 5.385430	 89.782110	 78.310620	 179.991900	 1.247695	 61.314850	 3.581175	 32.976810	 10.631940	 12.179860	 47.867740	-29.621570	-48.299170	 5.715225	 19.176060	-3.692089	 5.027514	 0.245388	-9.378011	-2.350882	 35.473990	 5.254307
-0.658741	-0.030715	 1.259735	-162.302300	 5.794352	 8.295407	 21.749860	-11.538470	 163.842600	-5.781651	-26.360750	-1.702381	-122.883500	 80.934860	 116.604700	-2.385833	 28.452760	 0.000004	 1.678187	-43.120450	 176.187900	-18.291400	-59.658600	-6.387760	 62.876540	 57.189720	-57.334530	 2.384659	 28.388700	-0.000001	 73.908070	-16.048730	-16.540700	 46.339960	 29.134450	-3.928386	-13.641390	-5.180644	 3.284634	-91.776180	 78.527400	-180.000000	 9.168705	 9.778674	-49.372560	-44.666510	 10.653500	-12.065450	 56.935940	-22.215760	 16.147520	-4.131196	 21.524690	 0.986298	-5.167839	 0.733520	 3.519257	-1.378229	 35.397820	-2.634230	-13.799420	 17.101220	-7.886111	-27.624880	 2.469694	 5.681192	 89.782200	 78.312640	 179.991800	 0.494160	 61.362150	 4.318633	 32.511600	 10.619360	 12.180530	 47.058860	-29.901280	-48.045930	 5.715225	 19.176060	-3.692089	 5.027514	 0.245388	-9.378011	-2.350882	 35.473990	 5.254307
-0.656314	-0.028227	 1.260961	-162.023300	 5.858704	 7.105403	 22.036310	-10.533770	 164.937300	-5.110693	-25.210950	-1.346509	-145.508100	 80.600810	 138.386200	-2.385833	 28.452760	 0.000004	 4.361681	-42.735530	 178.496600	-18.241210	-59.510080	-6.334714	 68.873460	 56.972000	-62.784120	 2.384659	 28.388700	-0.000001	 73.884090	-16.223320	-15.029360	 46.507820	 30.337530	-5.508235	-13.426090	-6.346670	 3.538416	-91.776210	 78.527400	-180.000000	 9.019085	 10.000530	-49.317650	-44.445360	 10.640230	-12.065220	 57.094170	-22.171320	 15.970910	-4.131196	 21.524690	 0.986298	-5.167839	 0.733520	 3.519257	-1.378229	 35.397820	-2.634230	-13.602880	 17.145880	-8.048409	-27.592220	 2.638576	 6.438847	 89.782150	 78.315380	 179.991700	-0.545057	 61.352230	 5.309921	 32.244860	 10.603290	 12.175140	 46.878440	-30.502880	-46.846320	 5.715225	 19.176060	-3.692089	 5.027514	 0.245388	-9.378011	-2.350882	 35.473990	 5.254307
-0.653375	-0.025267	 1.262295	-161.660800	 5.934560	 5.797374	 22.422110	-9.385324	 166.099400	-4.411494	-23.803910	-0.993117	-165.361700	 79.018160	 157.560600	-2.385833	 28.452760	 0.000004	 7.286295	-42.131890	-179.005800	-18.193940	-59.300480	-6.280282	 75.355900	 56.340500	-68.555500	 2.384659	 28.388700	-0.000001	 73.891560	-16.245260	-13.304040	 46.675610	 31.383550	-7.059274	-13.196500	-7.481707	 3.756889	-91.776150	 78.527400	 180.000000	 8.834542	 10.264600	-49.260460	-44.206960	 10.622610	-12.061080	 57.264810	-22.122050	 15.787160	-4.131196	 21.524690	 0.986298	-5.167839	 0.733520	 3.519257	-1.378229	 35.397820	-2.634230	-13.388370	 17.184090	-8.225450	-27.561650	 2.831778	 7.264527	 89.782170	 78.318630	 179.991800	-1.593119	 61.332420	 6.337950	 31.967860	 10.585180	 12.170640	 46.710440	-31.190920	-45.554830	 5.715225	 19.176060	-3.692089	 5.027514	 0.245388	-9.378011	-2.350882	 35.473990	 5.254307
